<?xml version="1.0" encoding="utf-8"?>
<!-- Generator: Adobe Illustrator 24.1.2, SVG Export Plug-In . SVG Version: 6.00 Build 0)  -->
<svg version="1.1" id="Layer_1" xmlns="http://www.w3.org/2000/svg" xmlns:xlink="http://www.w3.org/1999/xlink" x="0px" y="0px"
	 viewBox="0 0 1007.8 188" style="enable-background:new 0 0 1007.8 188;" xml:space="preserve">
<style type="text/css">
	.st0{fill:#FFFFFF;}
	.st1{fill:#4594FF;stroke:#000000;stroke-width:3;stroke-miterlimit:10;}
</style>
<polygon class="st0" points="131.5,12.5 176.6,12.5 225.8,97.8 275,12.5 320.1,12.5 225.8,175.8 "/>
<path d="M317.5,14l-91.7,158.8L134.1,14h41.6l47.5,82.3l2.6,4.5l2.6-4.5L275.9,14H317.5 M322.7,11h-48.6l-48.4,83.8L177.4,11h-48.6
	l96.9,167.8L322.7,11z"/>
<polygon class="st0" points="383.3,177.1 383.3,50.4 330.9,50.4 330.9,12 474.7,12 474.7,50.4 421.7,50.4 421.7,177.1 "/>
<path d="M473.2,13.5v35.4h-53v126.7h-35.4V48.9h-52.4V13.5H473.2 M476.2,10.5H329.4v41.4h52.4v126.7h41.4V51.9h53L476.2,10.5
	L476.2,10.5z"/>
<polygon class="st0" points="588.1,175.5 538.9,90.2 489.7,175.5 444.6,175.5 538.9,12.2 633.2,175.5 "/>
<path d="M538.9,15.2L630.6,174H589l-47.5-82.3l-2.6-4.5l-2.6,4.5L488.8,174h-41.6L538.9,15.2 M538.9,9.2L442,177h48.5l48.4-83.8
	l48.4,83.8h48.5L538.9,9.2z"/>
<polygon class="st0" points="762.3,177.1 762.3,114.1 687.7,114.1 687.7,177.1 649.3,177.1 649.3,12.6 687.7,12.6 687.7,75.7 
	762.3,75.7 762.3,12.6 800.7,12.6 800.7,177.1 "/>
<path d="M799.2,14.1v161.5h-35.4v-63.1h-77.6v63.1h-35.4V14.1h35.4v63.1h77.6V14.1H799.2 M802.2,11.1h-41.4v63.1h-71.6V11.1h-41.4
	v167.5h41.4v-63.1h71.6v63.1h41.4V11.1z"/>
<polygon class="st0" points="960.1,177.5 910.9,92.2 861.7,177.5 816.6,177.5 910.9,14.2 1005.2,177.5 "/>
<path d="M910.9,17.2l91.7,158.8H961l-47.5-82.3l-2.6-4.5l-2.6,4.5L860.8,176h-41.6L910.9,17.2 M910.9,11.2L814,179h48.5l48.4-83.8
	l48.4,83.8h48.5L910.9,11.2z"/>
<path class="st1" d="M1003.4,94c0,51.1-41.4,92.5-92.5,92.5s-92.5-41.4-92.5-92.5s41.4-92.5,92.5-92.5S1003.4,42.9,1003.4,94"/>
<polygon class="st0" points="146.1,175.5 96.9,90.2 47.7,175.5 2.6,175.5 96.9,12.2 191.2,175.5 "/>
<path d="M96.9,15.2L188.6,174H147L99.5,91.7l-2.6-4.5l-2.6,4.5L46.8,174H5.2L96.9,15.2 M96.9,9.2L0,177h48.5l48.4-83.8l48.4,83.8
	h48.6L96.9,9.2z"/>
<polygon class="st0" points="933.3,53.6 884.2,138.9 982.6,138.8 1005.2,177.8 816.6,178.1 910.7,14.6 "/>
<path d="M819.2,176.6l91.5-159l20.9,36l-47.4,82.3l-2.6,4.5l5.2,0l95-0.1l20.9,36L819.2,176.6 M814,179.6l193.8-0.3l-24.3-42
	l-96.7,0.1L935,53.6l-24.3-42L814,179.6z"/>
<polygon class="st0" points="960.1,177.8 910.9,92.5 861.7,177.8 816.6,177.8 910.9,14.4 1005.2,177.8 "/>
<path d="M910.9,17.4l91.7,158.8H961L913.5,94l-2.6-4.5l-2.6,4.5l-47.5,82.3h-41.6L910.9,17.4 M910.9,11.4L814,179.3h48.5l48.4-83.8
	l48.4,83.8h48.6L910.9,11.4z"/>
</svg>
